<svg xmlns="http://www.w3.org/2000/svg" viewBox="0 0 64 64" id="learning">
  <path fill="#4d4d4d" d="M59.0345,27.3598h-1c.28271-2.61212-1.23194-4.95038-4-5H48.51863l7.2229-7.22168c4.88574-3.44672,3.53223-7.40387-.71094-10.60541C49.53914-1.14167,35.61067,20.42236,31.0085,22.90185c-3.86109-.1958-26.99951-3.79535-24.974,4.458-7.78736-2.18048-2.563,24.105-4.00183,27.00012-.75647,5.95361,22.52087,1.85339,25.1278,2.99988a4.02442,4.02442,0,0,0,3.874,2.99994c2.37683.25848,5.29809-.33777,5.873-2.99994,2.72314-1.19373,25.79882,2.97937,25.12719-2.9986C60.8426,51.733,65.04671,26.5545,59.0345,27.3598Zm-1,2c.81482-.46326,1.35132.18805,1.698,1.52588-.51075-.47119-1.29078.00464-1.736.36688C58.00447,30.636,58.01594,30.00842,58.0345,29.3598Zm.09753,3.52569c.47193-.60485,1.44568-.76495,1.71887-1.5036a19.12269,19.12269,0,0,1,.2732,2.04254,14.9563,14.9563,0,0,0-2.1156,1.98212c-.014-.76971-.02088-1.57483-.02161-2.40594A1.33347,1.33347,0,0,0,58.132,32.88549ZM54.0345,24.3598a2.00229,2.00229,0,0,1,2,2c-.67627,35.64752,5.84485,20.272-23,26.54053V34.94812c4.22595.4436,10.68213-8.244,13.4845-10.58863ZM34.40217,54.3872a10.06831,10.06831,0,0,0-1.233,1.73511A4.29859,4.29859,0,0,1,34.40217,54.3872Zm2.89234-23.63159a13.9021,13.9021,0,0,0-1.74024-2.5011L51.4991,12.30975l.80493.80493c.46765.43768.46814,1.26752,1.10547,1.52625C49.27571,18.77472,41.29548,26.75476,37.29451,30.75561ZM55.11372,7.67132c.03662-.07916.07019-.157.10486-.235,1.67725,1.75494,2.71411,3.81579-.18457,5.5802l-.6593-.65931a10.0331,10.0331,0,0,0,1.9917-2.801.54016.54016,0,0,0-.18909-.55438c-.64246-.39392-1.1676.45141-1.48633.907-.3855.54456-.73852,1.10974-1.085,1.67969l-.55371-.55365A32.90812,32.90812,0,0,0,55.11372,7.67132Zm-2.3435-1.102q.22467-.47277.44934-.94562a10.14037,10.14037,0,0,1,.8208.69056A16.85849,16.85849,0,0,0,52.32356,9.699,6.1222,6.1222,0,0,0,51.586,8.845,12.83859,12.83859,0,0,0,52.77022,6.56933ZM52.271,5.3565c-.4032,1.01331-.81482,2.02552-1.214,3.03943-.54468-.4762-1.28955-.58063-1.6792-1.03564C50.09944,6.55066,51.17293,5.40765,52.271,5.3565ZM31.82844,24.91058,47.9637,8.77441,50.085,10.89569,34.14046,26.84027a13.89346,13.89346,0,0,0-2.50159-1.7406ZM8.0345,26.3598c-.37293-4.08875,19.50439-1.23712,21.457-1.94086-1.38135.60309-1.85791,4.24207-2.18848,5.55554-1.02734,4.5824-2.89013,7.76215,3.73145,5.436V52.90033C2.1103,46.66955,8.73421,61.9021,8.0345,26.3598Zm22.543,7.09869c.02978-.0343.06189-.06659.08886-.10309.01612.02393.03577.04633.05152.07044ZM6.0345,29.3598c.01391.471.02051.92023.02856,1.3742-.776.16864-1.31933.91065-1.89306,1.42188a5.38812,5.38812,0,0,0-.13672-1.79651C4.02839,29.29309,5.26179,29.30706,6.0345,29.3598Zm.04663,2.80591q.00823,1.29867-.00708,2.5014a9.77169,9.77169,0,0,0-2.00928,2.132c.0332-1.05023.06226-2.02344.08154-2.88092C4.83186,33.37829,5.39461,32.706,6.08113,32.16571Zm-2.051,5.725a.402.402,0,0,0,.35425-.11456c.52027-.5813,1.10132-1.10126,1.66431-1.63971-.027,1.21521-.064,2.353-.10364,3.41571-.87317-.1087-1.54138,1.12891-2.01819,1.72949C3.95918,40.11834,3.99544,38.976,4.0301,37.89074Zm-.141,4.85932c.31165-.03974.45325-.39966.639-.61341.40833-.54943.92261-1.02227,1.37781-1.5354-.04724,1.23291-.08875,2.36133-.10681,3.38752A9.945,9.945,0,0,0,3.82857,46.674C3.83455,45.4035,3.85762,44.07684,3.88911,42.75006ZM9.1009,55.3598H5.0345c-.50415.1557-.81116-.81958-.99024-2.4513.55616-.19995.84986-.86413,1.28833-1.25036a3.417,3.417,0,0,0,.92408-1.39783.50666.50666,0,0,0-.74024-.569,5.83244,5.83244,0,0,0-1.58874,1.78564c-.07117-1.21185-.09973-2.62921-.1-4.15277.3252.39734.80127.11261.99829-.25659a9.1042,9.1042,0,0,1,.98145-1.07239c.12671,4.27558,1.15381,6.39917,5.28955,7.2453C10.4709,53.98276,9.7397,54.63211,9.1009,55.3598Zm6.42859-1.5174a17.25819,17.25819,0,0,0-1.51025,1.51734c-1.21436,0-2.38806.00006-3.4657.00006a11.12947,11.12947,0,0,0,2.17957-1.86609c.88257.09906,1.881.15961,2.99426.18884C15.6617,53.73614,15.59273,53.78558,15.52949,53.8424Zm.33728,1.51728a15.11,15.11,0,0,0,2.22266-1.65784c.98315-.00873,2.05432-.036,3.19714-.0766a21.3872,21.3872,0,0,0-2.43347,1.73438C17.87044,55.35968,16.86629,55.35962,15.86677,55.35968Zm12.16846-.0008c-.00024.00012-.58374.00025-1.55981.00037a4.35609,4.35609,0,0,0,1.40332-1.22485.47323.47323,0,0,0-.52942-.6886,9.68631,9.68631,0,0,0-2.50867,1.91357l-4.36719.00018a9.01,9.01,0,0,0,2.42432-1.79785c1.253-.05511,2.57788-.12188,4.01733-.20349,1.21363-.39661,2.06885.31824,2.77674,1.23407-.37366.40863-.77539.7984-1.1294,1.22131A3.3841,3.3841,0,0,0,28.03523,55.35888Zm3.87915,3.10736c-2.10681.07953-2.21277-.855-2.78735-1.88342A13.17246,13.17246,0,0,0,30.37056,55.559c.77771,1.1665,1.44324,2.1466,2.3822,1.292C32.46565,57.385,32.18867,57.925,31.91438,58.46624ZM29.43513,29.63562l.69995-3.03315a11.84208,11.84208,0,0,1,5.67579,5.63819l-3.05628.71124A8.02342,8.02342,0,0,0,29.43513,29.63562Zm6.88477,25.444-.17468.241c-.06079.01129-.09986.02436-.11023.03992-1.608.27637-.76783,3.23932-3.00074,2.999-.09057.01355-.16406.01874-.24963.02991.42444-.51129,3.963-4.455,1.93164-4.22742a4.24883,4.24883,0,0,1,3.00134-.7713A9.91814,9.91814,0,0,0,36.3199,55.07959ZM39.935,54.9035a.65732.65732,0,0,0-.18152.394c-1.02417-.02118-1.89941-.03393-2.53723-.02911a7.42067,7.42067,0,0,0,1.04065-1.532.29782.29782,0,0,0-.09717-.32154c1.09082.06037,2.13025.11328,3.10767.1565C40.80574,53.99511,40.37507,54.45868,39.935,54.9035Zm5.22827.35022c-.04468.055-.08679.11218-.131.16748-1.17065-.026-2.29639-.054-3.33667-.07929a10.29337,10.29337,0,0,0,2.106-1.67413c1.06726.03113,2.03955.043,2.95825.04193A14.5788,14.5788,0,0,0,45.16328,55.25372Zm3.8606.23682c-.89881-.01014-1.80383-.02454-2.69715-.04206a16.29085,16.29085,0,0,0,2.02173-1.76037c.81153-.022,1.56494-.06031,2.25183-.11914A17.85229,17.85229,0,0,0,49.02388,55.49054Zm6.17468-.04731a42.16608,42.16608,0,0,0,4.71509-4.94745c-.073,2.16889-.0752,3.66761.12085,3.864C60.431,55.02392,58.31575,55.32684,55.19856,55.44323Zm4.77185-6.46264c-.32092-.1034-.70215.19384-.98718.335A41.72608,41.72608,0,0,0,53.671,55.48407c-.91418.01684-1.87939.02282-2.876.01983.90063-.86291,1.87719-1.65179,2.82959-2.41266,3.00647-.78906,4.14184-2.41534,4.50512-5.29217A20.91127,20.91127,0,0,1,60.10359,45.767C60.05745,46.90094,60.01057,47.98492,59.97041,48.98059ZM60.16633,44.15c-.957.27173-1.46191,1.29523-1.91027,2.1098.03955-.961.03088-2.03174-.00257-3.22778.36426-.29077,1.68775-1.89,2.01148-2.19489C60.24129,41.94323,60.20637,43.05835,60.16633,44.15Zm-1.14025-3.65875q-.40962.55416-.81934,1.1084c-.05078-1.39032-.11609-2.9278-.16272-4.625a22.23686,22.23686,0,0,0,2.1897-1.88892c.05334,1.19495.06787,2.50354.0581,3.85925A8.31232,8.31232,0,0,0,59.02608,40.49121Z"></path>
  <path fill="#4d4d4d" d="M13.73042 29.97473c2.11487-.01508 4.24548-.52771 6.72839-.3374a9.89747 9.89747 0 002.355-.04163.76911.76911 0 00.182-1.39221C22.26179 27.32672 10.97835 28.03881 13.73042 29.97473zM13.11555 34.98938a46.543 46.543 0 018.14014.0169c.81482.07917 2.08936.465 2.80127-.06341a.73767.73767 0 00.26062-.99408c-.57556-.80426-1.75134-.80908-2.65466-.8758a24.46749 24.46749 0 00-8.69068.85743C12.41731 34.11 12.48213 35.01953 13.11555 34.98938zM13.36067 40.27246a31.98932 31.98932 0 017.61011.37945 5.67125 5.67125 0 002.63879-.02038.66645.66645 0 00.13281-1.03083 5.43092 5.43092 0 00-2.52038-.805c-2.65405-.2782-5.47461-.60516-7.99854.46387C12.72737 39.457 12.7303 40.30938 13.36067 40.27246zM13.22676 46.04065c2.8219.23779 5.68762-.107 8.50049.41125a7.7591 7.7591 0 003.00744.15979.81413.81413 0 00.35694-1.35144c-1.71241-1.20367-4.0232-.999-6.02625-1.1203C18.23848 44.0711 11.094 44.43426 13.22676 46.04065zM7.76668 52.22424A11.67367 11.67367 0 005.1905 54.51709a.40366.40366 0 000 .56347.41074.41074 0 00.56348 0 11.68237 11.68237 0 002.4812-2.249A.38849.38849 0 007.76668 52.22424z"></path>
</svg>
